<?xml version="1.0" encoding="utf-8"?>
<svg version="1.1" id="meter_icons" xmlns="http://www.w3.org/2000/svg"
    xmlns:xlink="http://www.w3.org/1999/xlink" x="0px" y="0px"
    viewBox="0 0 512 512" xml:space="preserve">
<path d="M354.1,90.1H386l106.4,331.8h-32.3L354.1,90.1z"/>
<path d="M307.3,358.5c-2.8-6.9-6.1-14.7-10-23.4c-3.8-8.7-7.9-17.7-12.3-26.9
    c-4.4-9.2-9-18.4-14-27.6s-10.2-17.8-15.6-25.7c-9,14.3-17.9,30.8-26.9,49.3
    c-9,18.6-17.3,36.7-25,54.3h-34.2c8.4-18.9,18.3-39.5,29.6-61.6
    s23.3-43.5,36.1-63.9l-61.8-112.1h34.9l46.5,91l49.9-91h34.2l-63,111
    c12.3,20,24.2,40.7,35.7,62.2s21.8,43,30.7,64.5
    h-34.8L307.3,358.5L307.3,358.5z"/>
<path d="M51.6,421.9H19L126.1,90.1H158L51.6,421.9z"/>
</svg>
